<?xml version="1.0" encoding="UTF-8"?>
<svg id="Layer_2" data-name="Layer 2" xmlns="http://www.w3.org/2000/svg" viewBox="0 0 203.42 180.66">
  <defs>
    <style>
      .cls-1 {
        fill: #3b393d;
      }
    </style>
  </defs>
  <g id="svg2">
    <path id="path56" class="cls-1" d="M165.88,32.21c-7.41,0-13.44-6.03-13.44-13.44s6.03-13.44,13.44-13.44,13.43,6.03,13.43,13.44-6.03,13.44-13.43,13.44ZM165.88,0c-10.37,0-18.77,8.4-18.77,18.77s8.41,18.77,18.77,18.77,18.77-8.4,18.77-18.77S176.25,0,165.88,0"/>
    <path id="path58" class="cls-1" d="M37.54,32.21c-7.41,0-13.44-6.03-13.44-13.44s6.03-13.44,13.44-13.44,13.44,6.03,13.44,13.44-6.03,13.44-13.44,13.44ZM37.54,0c-10.37,0-18.77,8.4-18.77,18.77s8.4,18.77,18.77,18.77,18.77-8.4,18.77-18.77S47.9,0,37.54,0"/>
    <path id="path60" class="cls-1" d="M133.91,110.94c0,1.07-.72,1.82-1.37,1.82s-1.37-.75-1.37-1.82v-37.84c0-3.76-2.99-6.82-6.67-6.82s-6.67,3.06-6.67,6.82v97.43c0,2.6-1.86,4.8-4.05,4.8s-4.05-2.2-4.05-4.8v-55.03s-.02-.43-.02-.43v-.13c-.4-4.3-3.83-7.54-7.99-7.54s-7.59,3.24-7.98,7.54l-.04.65v54.95c0,2.6-1.86,4.8-4.05,4.8s-4.05-2.2-4.05-4.8v-97.43c0-3.76-2.99-6.82-6.67-6.82s-6.67,3.06-6.67,6.82v37.84c0,1.04-.72,1.82-1.37,1.82s-1.37-.75-1.37-1.82v-52.73c0-.99.83-1.82,1.82-1.82h60.78c.98,0,1.82.83,1.82,1.82v52.73ZM132.1,51.06h-60.78c-3.93,0-7.15,3.22-7.15,7.15v52.73c0,3.93,3.02,7.15,6.71,7.15s6.7-3.22,6.7-7.15v-37.84c0-.82.6-1.49,1.34-1.49s1.34.67,1.34,1.49v97.43c0,5.57,4.22,10.13,9.38,10.13s9.39-4.56,9.39-10.13v-55.12c.15-1.5,1.3-2.68,2.68-2.68s2.53,1.18,2.67,2.68v.3s.01,54.82.01,54.82c0,5.57,4.22,10.13,9.39,10.13s9.39-4.56,9.39-10.13v-97.43c0-.82.6-1.49,1.34-1.49s1.34.67,1.34,1.49v37.84c0,3.93,3.02,7.15,6.71,7.15s6.7-3.22,6.7-7.15v-52.73c0-3.93-3.22-7.15-7.15-7.15"/>
    <path id="path62" class="cls-1" d="M101.71,43.04c-7.41,0-13.44-6.03-13.44-13.44s6.03-13.44,13.44-13.44,13.43,6.03,13.43,13.44-6.03,13.44-13.43,13.44ZM101.71,10.84c-10.37,0-18.77,8.4-18.77,18.77s8.4,18.77,18.77,18.77,18.77-8.4,18.77-18.77-8.4-18.77-18.77-18.77"/>
    <path id="path64" class="cls-1" d="M53.79,58.21v2.74c-.09.43-.13.87-.13,1.32v97.43c0,2.6-1.86,4.79-4.05,4.79s-4.05-2.2-4.05-4.79v-54.95l-.04-.65c-.39-4.3-3.82-7.53-7.98-7.53s-7.59,3.24-7.98,7.53l-.03.67v54.93c0,2.6-1.86,4.79-4.05,4.79s-4.05-2.2-4.05-4.79V62.27c0-3.76-2.99-6.82-6.67-6.82s-6.67,3.06-6.67,6.82v37.84c0,1.07-.72,1.82-1.37,1.82s-1.37-.75-1.37-1.82v-52.73c0-.99.83-1.82,1.82-1.82h52.04c-3.33,3.19-5.41,7.69-5.41,12.65ZM67.93,40.22H7.15c-3.93,0-7.15,3.22-7.15,7.15v52.73c0,3.93,3.02,7.15,6.7,7.15s6.7-3.22,6.7-7.15v-37.84c0-.82.6-1.49,1.34-1.49s1.34.67,1.34,1.49v97.43c0,5.57,4.22,10.13,9.39,10.13s9.39-4.56,9.39-10.13v-55.12c.15-1.5,1.3-2.68,2.68-2.68s2.53,1.18,2.67,2.68v.3s.01,54.82.01,54.82c0,5.57,4.22,10.13,9.39,10.13s9.38-4.56,9.38-10.13V62.27c0-.22.05-.43.13-.62v-3.44c0-6.73,5.47-12.2,12.2-12.2h3.62c-.64-3.29-3.55-5.79-7.01-5.79"/>
    <path id="path66" class="cls-1" d="M198.09,100.11c0,1.07-.72,1.82-1.37,1.82s-1.37-.75-1.37-1.82v-37.84c0-3.76-2.99-6.82-6.67-6.82s-6.67,3.06-6.67,6.82v97.43c0,2.6-1.86,4.79-4.05,4.79s-4.05-2.2-4.05-4.79v-55.03s-.02-.43-.02-.43v-.14c-.4-4.29-3.83-7.53-7.99-7.53s-7.59,3.24-7.98,7.53l-.04.64v54.96c0,2.6-1.86,4.79-4.05,4.79s-4.05-2.2-4.05-4.79V62.27c0-.45-.05-.9-.13-1.34v-2.72c0-4.97-2.08-9.46-5.41-12.65h52.05c.99,0,1.82.83,1.82,1.82v52.73ZM196.27,40.22h-60.78c-3.47,0-6.37,2.5-7.02,5.79h3.62c6.73,0,12.2,5.47,12.2,12.2v3.44c.08.19.13.4.13.62v97.43c0,5.57,4.22,10.13,9.38,10.13s9.38-4.56,9.38-10.13v-54.82l.02-.3c.13-1.5,1.28-2.68,2.67-2.68s2.53,1.18,2.67,2.68v.3s.01,54.82.01,54.82c0,5.57,4.22,10.13,9.38,10.13s9.39-4.56,9.39-10.13V62.27c0-.82.6-1.49,1.34-1.49s1.34.67,1.34,1.49v37.84c0,3.93,3.02,7.15,6.7,7.15s6.7-3.22,6.7-7.15v-52.73c0-3.93-3.22-7.15-7.15-7.15"/>
  </g>
</svg>