<?xml version="1.0" encoding="UTF-8"?>
<svg id="Layer_2" data-name="Layer 2" xmlns="http://www.w3.org/2000/svg" viewBox="0 0 75.08 169.82">
  <defs>
    <style>
      .cls-1 {
        fill: #3b393d;
      }
    </style>
  </defs>
  <g id="svg2">
    <path id="path52" class="cls-1" d="M69.75,100.1c0,1.07-.72,1.82-1.37,1.82s-1.37-.75-1.37-1.82v-37.84c0-3.76-2.99-6.82-6.67-6.82s-6.67,3.06-6.67,6.82v97.42c0,2.6-1.86,4.8-4.05,4.8s-4.05-2.2-4.05-4.8v-54.93l-.02-.54v-.13c-.4-4.3-3.83-7.54-7.99-7.54s-7.59,3.24-7.98,7.54l-.04.64v54.96c0,2.6-1.85,4.8-4.05,4.8s-4.05-2.2-4.05-4.8V62.27c0-3.76-2.99-6.82-6.67-6.82s-6.67,3.06-6.67,6.82v37.84c0,1.07-.72,1.82-1.37,1.82s-1.37-.75-1.37-1.82v-52.73c0-.99.83-1.82,1.82-1.82h60.78c.98,0,1.82.83,1.82,1.82v52.73ZM67.93,40.22H7.15c-3.93,0-7.15,3.22-7.15,7.15v52.73c0,3.93,3.02,7.15,6.7,7.15s6.7-3.22,6.7-7.15v-37.84c0-.82.6-1.49,1.34-1.49s1.34.67,1.34,1.49v97.42c0,5.57,4.22,10.13,9.38,10.13s9.38-4.56,9.38-10.13v-54.82l.02-.3c.14-1.5,1.28-2.68,2.67-2.68s2.53,1.18,2.67,2.68v.3s.01,54.82.01,54.82c0,5.57,4.22,10.13,9.38,10.13s9.39-4.56,9.39-10.13V62.27c0-.82.6-1.49,1.34-1.49s1.34.67,1.34,1.49v37.84c0,3.93,3.02,7.15,6.7,7.15s6.7-3.22,6.7-7.15v-52.73c0-3.93-3.22-7.15-7.15-7.15"/>
    <path id="path54" class="cls-1" d="M37.54,32.21c-7.41,0-13.44-6.03-13.44-13.44s6.03-13.44,13.44-13.44,13.44,6.03,13.44,13.44-6.03,13.44-13.44,13.44ZM37.54,0c-10.37,0-18.77,8.4-18.77,18.77s8.4,18.77,18.77,18.77,18.77-8.4,18.77-18.77S47.91,0,37.54,0"/>
  </g>
</svg>